<svg id="svg" version="1.1" width="800" height="800" xmlns="http://www.w3.org/2000/svg"><path d="M380.420 215.337 C 393.576 217.627,404.496 219.974,404.688 220.553 C 404.999 221.495,384.861 232.659,365.228 242.429 C 359.137 245.460,357.859 245.797,357.363 244.504 C 354.853 237.963,347.215 211.461,347.641 210.771 C 348.264 209.763,348.880 209.849,380.420 215.337 M334.159 228.744 C 336.233 235.760,339.139 245.608,340.617 250.630 L 343.303 259.760 337.757 268.630 C 334.707 273.508,329.644 281.919,326.507 287.319 C 323.369 292.720,320.244 297.353,319.562 297.614 C 318.881 297.876,312.738 296.076,305.911 293.614 C 299.085 291.152,281.125 284.812,266.000 279.526 C 232.492 267.814,231.666 267.499,231.260 266.280 C 231.081 265.743,243.887 258.505,259.717 250.194 C 275.548 241.884,297.500 230.366,308.500 224.598 C 320.992 218.047,328.854 214.463,329.444 215.049 C 329.964 215.566,332.085 221.729,334.159 228.744 M487.062 222.952 C 491.153 224.025,508.450 229.917,525.500 236.046 C 593.583 260.516,593.564 260.511,608.321 259.774 C 620.367 259.173,625.440 257.346,654.000 243.329 C 666.925 236.985,679.244 231.166,681.376 230.397 C 689.774 227.369,698.674 229.205,705.756 235.426 C 709.985 239.141,712.658 244.086,736.061 291.500 C 789.853 400.480,788.091 396.426,786.014 406.434 C 784.779 412.384,780.274 419.935,776.475 422.424 C 775.121 423.311,760.447 430.538,743.865 438.483 C 727.283 446.428,711.192 454.407,708.108 456.214 C 704.744 458.185,696.660 465.402,687.905 474.250 C 678.406 483.849,672.583 489.000,671.229 489.000 C 670.065 489.000,656.225 479.227,639.824 466.823 C 623.696 454.625,588.900 428.454,562.500 408.663 C 494.694 357.834,496.807 359.461,489.782 352.667 C 486.275 349.275,480.107 342.521,476.076 337.659 C 467.382 327.170,464.244 325.009,457.699 325.004 C 452.547 325.000,426.884 331.009,420.837 333.635 C 416.263 335.621,413.597 338.470,402.248 353.500 C 397.265 360.100,390.098 368.481,386.321 372.124 C 377.434 380.698,364.089 389.351,353.726 393.259 C 346.375 396.032,344.330 396.365,334.500 396.390 C 313.223 396.444,298.404 388.730,300.420 378.650 C 300.992 375.790,313.352 353.924,345.399 299.081 C 363.992 267.262,361.235 269.642,406.000 246.767 C 445.132 226.771,449.776 224.582,457.500 222.487 C 464.998 220.454,478.342 220.664,487.062 222.952 M125.798 244.445 C 136.084 249.090,153.482 256.910,164.459 261.822 C 175.437 266.735,184.575 271.225,184.767 271.801 C 185.026 272.578,102.135 437.610,100.327 439.917 C 100.147 440.146,99.781 440.114,99.514 439.847 C 98.841 439.175,71.000 307.536,71.000 305.030 C 71.000 302.018,104.273 236.000,105.791 236.000 C 106.509 236.000,115.512 239.800,125.798 244.445 M224.434 285.953 C 261.471 298.996,308.263 315.930,308.830 316.497 C 309.178 316.845,308.737 318.338,307.851 319.815 C 293.700 343.391,281.351 365.411,279.776 369.876 C 277.115 377.419,277.210 386.292,280.022 392.830 C 284.563 403.386,298.656 413.228,314.260 416.742 C 325.066 419.176,344.267 418.881,354.500 416.124 C 376.794 410.117,398.951 393.914,417.233 370.250 C 421.589 364.613,425.301 360.000,425.483 360.000 C 426.646 360.000,492.668 384.293,493.363 384.977 C 493.847 385.453,493.733 392.345,493.105 400.663 C 492.488 408.823,491.305 425.625,490.476 438.000 C 489.114 458.331,488.756 460.789,486.753 463.500 C 479.246 473.665,424.614 548.730,409.086 570.218 C 398.864 584.363,390.275 595.951,390.000 595.968 C 389.725 595.985,389.448 592.921,389.385 589.160 C 389.114 573.058,380.193 557.823,365.651 548.626 C 360.191 545.173,351.634 542.866,343.000 542.520 L 334.500 542.179 332.780 535.912 C 329.955 525.614,326.160 518.990,319.082 512.000 C 308.976 502.020,296.955 497.000,283.161 497.000 C 271.546 497.000,257.581 502.570,248.947 510.646 L 244.148 515.135 240.731 509.818 C 235.893 502.289,229.065 496.407,220.369 492.277 C 213.901 489.206,211.582 488.647,203.558 488.227 C 187.619 487.394,178.026 490.926,166.803 501.760 L 160.089 508.243 141.820 491.371 C 131.773 482.092,121.618 472.700,119.253 470.500 L 114.955 466.500 153.072 391.500 C 174.037 350.250,195.199 308.512,200.100 298.750 C 205.001 288.988,209.316 281.000,209.689 281.000 C 210.062 281.000,216.697 283.229,224.434 285.953 M58.496 332.250 C 60.722 341.618,82.990 448.877,82.994 450.250 C 82.997 451.212,82.776 452.000,82.502 452.000 C 82.229 452.000,68.166 445.888,51.252 438.417 C 34.339 430.947,18.547 423.980,16.161 422.934 C 13.775 421.889,11.975 420.592,12.161 420.052 C 13.406 416.446,56.647 330.102,57.231 330.057 C 57.633 330.026,58.202 331.012,58.496 332.250 M582.750 451.853 C 604.888 468.485,623.000 482.319,623.000 482.595 C 623.000 484.332,593.557 525.000,592.299 525.000 C 591.453 525.000,579.676 516.748,566.130 506.663 C 552.583 496.577,534.468 483.124,525.873 476.766 C 517.278 470.409,509.994 464.799,509.685 464.300 C 509.142 463.420,512.812 403.768,513.565 401.248 C 513.788 400.501,519.694 404.353,528.219 410.805 C 536.074 416.749,560.612 435.221,582.750 451.853 M509.343 488.841 C 514.380 492.604,536.500 509.078,558.500 525.451 C 580.500 541.823,598.886 555.578,599.357 556.017 C 599.829 556.455,593.710 565.753,585.759 576.678 C 577.808 587.603,570.677 597.545,569.911 598.771 C 569.145 599.997,567.972 601.000,567.303 601.000 C 565.010 601.000,466.812 526.932,467.327 525.591 C 467.861 524.198,495.173 486.632,497.747 483.750 C 498.607 482.788,499.507 482.000,499.748 482.000 C 499.989 482.000,504.307 485.079,509.343 488.841 M209.205 509.554 C 215.359 511.651,221.521 517.135,224.719 523.362 C 226.848 527.507,227.372 529.950,227.429 536.000 C 227.524 546.046,225.020 550.933,211.424 567.236 C 202.114 578.399,200.013 580.360,194.407 583.121 C 188.583 585.988,187.382 586.225,180.986 585.767 C 172.398 585.152,166.299 581.769,160.898 574.623 C 154.902 566.690,153.360 557.170,156.553 547.799 C 158.393 542.399,179.012 516.744,184.405 513.143 C 192.148 507.974,200.866 506.713,209.205 509.554 M295.622 519.986 C 301.669 522.610,307.561 528.406,310.720 534.839 C 314.345 542.221,314.647 553.938,311.395 561.015 C 308.081 568.227,262.893 623.170,255.692 628.745 C 240.820 640.256,219.334 634.995,210.209 617.608 C 206.629 610.787,206.350 597.998,209.627 591.000 C 211.418 587.176,251.886 537.246,261.364 527.165 C 270.216 517.750,283.874 514.888,295.622 519.986 M496.119 573.152 C 518.152 589.735,536.393 603.862,536.655 604.544 C 537.060 605.599,506.561 649.000,505.414 649.000 C 505.062 649.000,483.322 632.902,436.250 597.786 C 428.962 592.349,423.000 587.481,423.000 586.968 C 423.000 585.519,454.062 543.000,455.120 543.000 C 455.637 543.000,474.086 556.568,496.119 573.152 M354.163 566.271 C 364.178 571.441,368.983 579.956,368.994 592.554 C 368.999 597.024,368.348 599.901,366.508 603.554 C 364.309 607.918,325.827 655.170,316.165 665.370 C 305.481 676.649,287.895 677.016,276.665 666.195 C 270.356 660.115,268.537 655.720,268.517 646.500 C 268.496 636.718,270.230 632.780,279.302 622.000 C 287.490 612.271,308.913 586.579,316.174 577.782 C 325.488 566.497,331.426 563.058,341.663 563.022 C 346.692 563.004,348.991 563.602,354.163 566.271 M441.130 625.649 C 457.009 637.556,470.000 647.640,470.000 648.057 C 470.000 649.318,440.735 689.164,439.445 689.659 C 438.495 690.024,423.087 680.186,419.723 677.067 C 419.296 676.671,420.061 674.354,421.423 671.917 C 428.717 658.866,428.851 639.456,421.742 625.500 C 420.621 623.300,416.815 618.507,413.283 614.848 C 407.395 608.749,406.970 608.021,408.171 606.098 C 408.892 604.944,410.107 604.000,410.871 604.000 C 411.635 604.000,425.252 613.742,441.130 625.649 M394.040 625.618 C 402.491 630.218,407.000 637.932,407.000 647.790 C 407.000 658.533,403.644 664.475,385.335 686.154 C 377.031 695.987,371.828 699.168,363.003 699.806 C 352.038 700.599,343.615 696.170,338.501 686.923 C 335.942 682.296,335.511 680.473,335.564 674.500 C 335.606 669.732,336.271 666.065,337.650 663.000 C 340.221 657.282,363.814 628.896,368.299 626.124 C 375.986 621.374,385.884 621.179,394.040 625.618 " stroke="none" fill="#cccccc" fill-rule="evenodd"/></svg>